<?xml version="1.0" encoding="utf-8"?>
<!-- Generator: Adobe Illustrator 25.2.0, SVG Export Plug-In . SVG Version: 6.00 Build 0)  -->
<svg version="1.1" id="Layer_1" xmlns="http://www.w3.org/2000/svg" xmlns:xlink="http://www.w3.org/1999/xlink" x="0px" y="0px"
	 viewBox="0 0 800 800" style="enable-background:new 0 0 800 800;" xml:space="preserve">
<style type="text/css">
	.st0{fill:#FFFF00;}
	.st1{enable-background:new    ;}
</style>
<rect class="st0" width="800" height="800"/>
<g class="st1">
	<path d="M121.6,700.3V384.7h126.7c22.8,0,43.5,3.8,62,11.3c18.5,7.5,34.4,18.3,47.8,32.5c13.4,14.1,23.6,30.8,30.7,50
		c7.1,19.2,10.6,40.6,10.6,64c0,23.4-3.5,44.9-10.6,64.2c-7.1,19.4-17.2,36.1-30.4,50c-13.2,14-29.2,24.7-47.8,32.2
		c-18.6,7.5-39.4,11.3-62.2,11.3H121.6z M180.2,654.7l-4.5-8.6H246c14.7,0,27.9-2.4,39.5-7.2c11.6-4.8,21.4-11.7,29.5-20.7
		c8.1-9,14.3-19.9,18.5-32.7c4.2-12.8,6.3-27.1,6.3-43.1c0-15.9-2.1-30.3-6.3-43.1c-4.2-12.8-10.4-23.7-18.7-32.7
		c-8.3-9-18.1-15.9-29.5-20.7c-11.4-4.8-24.5-7.2-39.2-7.2h-71.7l5.9-7.7V654.7z"/>
	<path d="M549.9,704.8c-18.3,0-35.2-2.3-50.5-7c-15.3-4.7-29.2-11.6-41.5-21c-12.3-9.3-23.3-20.6-32.9-33.8l38.3-43.3
		c14.7,20.4,29.2,34.6,43.3,42.4c14.1,7.8,30.1,11.7,47.8,11.7c10.2,0,19.5-1.6,28-4.7c8.4-3.2,15-7.5,19.8-13.1
		c4.8-5.6,7.2-11.9,7.2-19.2c0-5.1-1-9.8-2.9-14.2c-2-4.4-4.9-8.3-8.8-11.7c-3.9-3.5-8.7-6.7-14.4-9.7c-5.7-3-12.2-5.6-19.4-7.7
		c-7.2-2.1-15.2-4.1-23.9-5.9c-16.5-3.3-31-7.7-43.3-13.3c-12.3-5.6-22.7-12.5-31.1-20.7c-8.4-8.3-14.6-17.6-18.5-28
		c-3.9-10.4-5.9-22.2-5.9-35.4c0-13.2,2.9-25.4,8.8-36.5c5.9-11.1,13.9-20.7,24.1-28.9c10.2-8.1,22.1-14.4,35.6-18.9
		c13.5-4.5,28.1-6.8,43.7-6.8c17.7,0,33.6,2.1,47.6,6.3c14,4.2,26.3,10.4,37,18.7c10.7,8.3,19.5,18.3,26.4,30l-38.8,38.3
		c-6-9.3-12.8-17.1-20.3-23.2c-7.5-6.2-15.6-10.8-24.3-14c-8.7-3.2-17.9-4.7-27.5-4.7c-10.8,0-20.2,1.5-28.2,4.5
		c-8,3-14.2,7.3-18.7,12.8c-4.5,5.6-6.8,12.2-6.8,20.1c0,6,1.4,11.3,4.1,16c2.7,4.7,6.5,8.8,11.5,12.4c5,3.6,11.3,6.8,19.2,9.5
		c7.8,2.7,16.7,5.1,26.6,7.2c16.5,3.3,31.4,7.7,44.6,13.3c13.2,5.6,24.5,12.2,33.8,19.8c9.3,7.7,16.4,16.4,21.2,26.2
		c4.8,9.8,7.2,20.7,7.2,32.7c0,20.7-4.9,38.5-14.7,53.4c-9.8,14.9-23.5,26.3-41.3,34.3C594.4,700.8,573.6,704.8,549.9,704.8z"/>
	<path d="M730.7,705.2c-10.8,0-19.2-3.2-25-9.5c-5.9-6.3-8.8-15.2-8.8-26.6c0-10.5,3.1-19.2,9.2-25.9c6.2-6.8,14.3-10.1,24.6-10.1
		c10.8,0,19.2,3.1,25,9.2c5.9,6.2,8.8,15.1,8.8,26.8c0,10.5-3.1,19.2-9.2,25.9C749.1,701.8,740.9,705.2,730.7,705.2z"/>
</g>
</svg>
