<?xml version="1.0" standalone="no"?>
<!DOCTYPE svg PUBLIC "-//W3C//DTD SVG 20010904//EN"
 "http://www.w3.org/TR/2001/REC-SVG-20010904/DTD/svg10.dtd">
<svg version="1.0" xmlns="http://www.w3.org/2000/svg"
 width="2842.000000pt" height="2842.000000pt" viewBox="0 0 2842.000000 2842.000000"
 preserveAspectRatio="xMidYMid meet">
<metadata>
Created by potrace 1.14, written by Peter Selinger 2001-2017
</metadata>
<g transform="translate(0.000000,2842.000000) scale(0.100000,-0.100000)"
fill="#000000" stroke="none">
<path d="M16628 23495 c-3 -3 -135 -6 -1033 -21 -198 -4 -2207 -7 -4465 -9
-2258 -1 -4132 -4 -4165 -8 -33 -3 -98 -9 -145 -12 -47 -3 -98 -8 -115 -10
-16 -2 -61 -7 -100 -10 -163 -14 -171 -16 -320 -54 -261 -66 -422 -123 -505
-178 -19 -13 -39 -23 -43 -23 -5 0 -60 -34 -123 -76 -100 -66 -258 -207 -317
-282 -171 -218 -268 -487 -269 -746 -1 -309 134 -628 364 -856 67 -66 239
-200 257 -200 6 0 11 -4 11 -9 0 -5 8 -11 18 -15 9 -3 37 -18 62 -32 129 -76
342 -153 525 -190 11 -2 43 -8 70 -14 84 -17 96 -20 210 -39 61 -11 135 -22
165 -26 30 -3 69 -7 86 -10 106 -13 266 -17 1329 -30 637 -8 913 -13 945 -19
14 -2 48 -7 75 -10 28 -4 57 -9 65 -11 8 -3 33 -7 55 -11 244 -37 441 -90 550
-146 273 -141 442 -340 498 -590 15 -69 17 -292 2 -353 -4 -16 -8 -34 -9 -40
-77 -323 -288 -647 -561 -859 -33 -26 -65 -50 -70 -54 -158 -123 -485 -257
-750 -307 -16 -3 -41 -8 -55 -10 -61 -13 -78 -15 -120 -21 -25 -3 -52 -7 -60
-9 -8 -2 -49 -7 -90 -11 -41 -3 -77 -8 -80 -9 -6 -4 -128 -14 -240 -21 -47 -2
-978 -7 -2070 -10 -2850 -7 -3971 -12 -4005 -18 -16 -2 -66 -7 -110 -11 -122
-9 -139 -12 -305 -50 -200 -46 -190 -44 -225 -51 -81 -15 -241 -71 -340 -118
-113 -54 -272 -156 -347 -223 -237 -211 -347 -386 -418 -663 -115 -452 70
-949 463 -1243 114 -85 328 -207 403 -229 10 -4 46 -16 79 -29 33 -12 77 -26
98 -30 20 -5 54 -13 75 -18 57 -14 224 -51 252 -57 14 -2 36 -7 50 -9 14 -3
39 -8 55 -10 17 -3 53 -10 80 -15 28 -5 73 -11 100 -14 28 -3 75 -9 105 -12
30 -4 1117 -8 2415 -9 2033 -2 2587 -6 2825 -20 174 -10 269 -17 295 -20 17
-2 57 -6 90 -10 62 -7 222 -31 265 -40 14 -3 36 -7 50 -10 54 -10 238 -68 310
-98 341 -141 600 -427 714 -787 38 -120 43 -140 50 -180 3 -19 8 -44 10 -55
29 -153 43 -468 31 -725 -16 -346 -31 -530 -56 -690 -5 -36 -28 -155 -50 -265
-23 -110 -42 -207 -44 -215 -31 -154 -142 -427 -226 -555 -181 -275 -447 -487
-754 -600 -38 -14 -198 -69 -355 -121 -157 -52 -294 -99 -305 -103 -11 -5 -58
-23 -105 -41 -286 -110 -487 -259 -589 -435 -26 -44 -58 -122 -65 -157 -3 -13
-8 -34 -11 -48 -8 -35 -8 -168 0 -210 47 -254 274 -528 545 -657 100 -47 295
-120 370 -138 8 -2 51 -13 95 -24 91 -25 290 -71 320 -76 94 -14 442 -103 515
-132 179 -71 346 -207 408 -333 33 -68 34 -71 36 -150 1 -55 -4 -76 -31 -130
-36 -73 -123 -175 -187 -219 -142 -98 -346 -170 -556 -196 -25 -3 -61 -7 -80
-10 -19 -2 -64 -7 -100 -10 -36 -3 -85 -8 -110 -10 -57 -6 -221 -20 -365 -30
-157 -12 -182 -14 -305 -20 -290 -13 -477 -24 -690 -40 -41 -3 -113 -7 -160
-10 -47 -3 -119 -7 -160 -10 -41 -2 -133 -7 -205 -10 -71 -4 -157 -9 -190 -11
-33 -2 -197 -6 -365 -9 -449 -7 -662 -14 -693 -20 -15 -3 -107 -7 -205 -9
-195 -5 -309 -13 -362 -27 -19 -4 -53 -11 -75 -14 -22 -4 -56 -10 -75 -15 -19
-4 -57 -12 -85 -16 -27 -4 -52 -8 -55 -9 -3 -1 -21 -5 -40 -9 -122 -26 -306
-96 -395 -149 -52 -32 -164 -119 -195 -154 -143 -156 -197 -290 -187 -463 17
-288 203 -510 547 -654 117 -49 254 -89 350 -102 19 -2 46 -6 60 -9 14 -2 46
-7 73 -10 26 -3 68 -8 95 -11 26 -3 65 -7 87 -10 22 -2 67 -6 100 -10 74 -8
106 -10 265 -18 115 -7 2275 -10 4130 -7 918 2 1366 -4 1880 -24 74 -3 196 -7
270 -10 154 -5 306 -14 365 -20 22 -2 73 -7 113 -10 40 -4 80 -8 90 -10 9 -1
46 -6 82 -10 36 -4 67 -8 70 -10 3 -2 37 -6 75 -10 39 -4 73 -9 76 -11 3 -1
28 -6 55 -9 41 -6 137 -23 220 -40 123 -26 494 -133 1089 -313 265 -81 606
-179 646 -187 12 -3 36 -9 53 -14 44 -15 374 -87 481 -105 50 -9 101 -18 115
-21 74 -13 230 -36 274 -41 28 -2 65 -7 81 -9 17 -2 62 -7 100 -10 39 -3 84
-7 100 -10 17 -2 66 -7 110 -10 44 -4 87 -8 95 -10 8 -2 56 -6 105 -10 50 -4
99 -9 110 -11 127 -25 4406 -25 4525 -1 54 12 121 17 275 22 88 3 172 8 186
10 14 3 42 7 63 9 20 3 40 7 44 10 8 5 106 16 192 21 30 2 78 6 105 10 51 6
97 13 240 40 22 4 51 9 65 12 14 2 59 11 100 20 41 9 82 17 90 18 8 1 29 5 45
8 17 4 41 9 54 12 13 2 85 18 160 36 75 17 144 32 154 34 10 2 52 14 95 25 42
12 84 23 92 25 8 2 47 14 85 26 39 13 72 23 75 24 12 2 117 37 135 45 11 4 49
18 85 31 89 30 238 87 277 105 17 8 33 14 36 14 33 0 604 270 789 372 43 24
101 56 130 72 443 242 1041 671 1433 1030 343 314 675 674 953 1035 233 302
512 723 666 1004 20 37 45 82 55 101 29 52 167 326 191 381 12 28 34 75 47
105 35 76 183 443 183 453 0 5 6 23 14 40 18 40 118 339 152 456 14 47 34 115
45 151 11 36 21 74 24 85 2 11 9 40 15 65 17 68 99 456 116 550 11 56 33 187
38 215 2 17 9 59 15 95 5 36 13 88 16 115 8 64 14 107 30 215 2 14 7 48 11 75
3 28 8 59 10 70 2 11 6 40 9 65 3 25 7 61 10 80 6 46 13 118 20 210 13 163 24
284 31 335 2 17 6 57 10 90 3 33 7 76 9 95 6 63 16 154 20 190 6 52 14 144 20
240 3 47 7 105 10 130 2 25 7 89 10 142 3 54 8 106 10 117 2 11 7 52 10 93 4
40 8 75 10 78 2 3 6 43 10 90 4 47 8 92 10 100 2 8 6 53 9 100 4 47 9 105 11
130 2 25 7 90 10 145 3 55 8 127 10 160 3 33 7 92 10 130 15 227 29 364 41
430 9 45 22 258 39 645 3 69 12 172 19 230 10 78 13 228 12 575 -1 259 -5 490
-9 515 -4 25 -9 70 -12 100 -3 30 -7 71 -10 90 -2 19 -7 56 -10 83 -5 45 -11
99 -20 177 -9 76 -17 140 -41 310 -30 223 -202 850 -322 1175 -184 500 -472
1029 -816 1500 -70 96 -262 341 -291 371 -5 6 -39 44 -75 85 -119 137 -444
454 -602 588 -233 197 -496 390 -766 560 -62 39 -115 71 -118 71 -3 0 -18 8
-32 19 -57 40 -431 231 -612 313 -247 112 -563 223 -845 298 -326 86 -614 152
-720 165 -27 3 -59 8 -71 10 -12 3 -39 7 -60 10 -21 3 -50 8 -64 11 -53 12
-187 32 -210 32 -8 -1 -42 2 -75 5 -61 7 -190 17 -280 22 -196 12 -270 20
-320 32 -20 6 -4952 13 -4957 8z"/>
</g>
</svg>
