<?xml version="1.0" standalone="no"?>
<!DOCTYPE svg PUBLIC "-//W3C//DTD SVG 20010904//EN"
 "http://www.w3.org/TR/2001/REC-SVG-20010904/DTD/svg10.dtd">
<svg version="1.0" xmlns="http://www.w3.org/2000/svg"
 width="700.000000pt" height="700.000000pt" viewBox="0 0 700.000000 700.000000"
 preserveAspectRatio="xMidYMid meet">
<metadata>
Created by potrace 1.14, written by Peter Selinger 2001-2017
</metadata>
<g transform="translate(0.000000,700.000000) scale(0.100000,-0.100000)"
fill="#000000" stroke="none">
<path d="M4625 3664 c-395 -71 -685 -319 -751 -645 -31 -156 1 -388 72 -520
117 -215 342 -358 696 -444 286 -70 345 -87 427 -126 175 -82 250 -170 259
-306 4 -64 1 -79 -22 -127 -71 -145 -264 -226 -506 -213 -280 15 -480 131
-695 402 -26 33 -49 61 -50 63 -1 1 -69 -73 -150 -165 -82 -92 -157 -178 -167
-189 -19 -21 -19 -22 42 -98 189 -235 458 -390 765 -442 136 -23 397 -23 525
0 231 41 395 122 541 266 83 82 103 108 143 190 70 144 81 197 81 385 0 142
-3 167 -23 225 -104 288 -401 484 -897 590 -124 27 -274 74 -339 107 -66 33
-150 115 -177 171 -30 62 -31 169 -2 234 26 58 90 120 157 153 131 64 357 73
515 20 139 -47 287 -159 373 -283 l29 -43 170 162 c93 89 169 166 169 171 0
16 -59 95 -118 159 -153 166 -351 264 -612 304 -119 19 -349 18 -455 -1z"/>
<path d="M1062 2253 l3 -1378 635 0 c561 1 647 3 735 18 539 95 906 456 1027
1010 20 90 22 131 22 347 0 218 -2 257 -22 350 -89 407 -310 712 -640 883 -59
30 -150 69 -202 85 -182 58 -242 62 -934 62 l-626 0 2 -1377z m1338 878 c280
-84 457 -271 537 -568 25 -90 27 -114 27 -303 1 -180 -2 -216 -22 -293 -78
-309 -255 -505 -532 -588 -71 -22 -95 -23 -452 -27 l-378 -3 0 906 0 907 373
-4 c350 -4 376 -6 447 -27z"/>
<path d="M6292 1446 c-63 -21 -126 -78 -158 -143 -54 -109 -43 -277 24 -369
91 -125 322 -139 437 -27 81 78 113 216 81 343 -34 133 -120 201 -264 207 -47
2 -93 -2 -120 -11z"/>
</g>
</svg>
